<mxfile host="Electron" agent="Mozilla/5.0 (X11; Linux x86_64) AppleWebKit/537.36 (KHTML, like Gecko) draw.io/24.7.8 Chrome/128.0.6613.84 Electron/32.0.2 Safari/537.36" version="24.7.8">
  <diagram name="Page-1" id="uq2VgrC6S_dIS1W9GzO_">
    <mxGraphModel dx="1214" dy="728" grid="1" gridSize="10" guides="1" tooltips="1" connect="1" arrows="1" fold="1" page="1" pageScale="1" pageWidth="850" pageHeight="1100" math="0" shadow="0">
      <root>
        <mxCell id="0" />
        <mxCell id="1" parent="0" />
        <mxCell id="azvXLlZP5CpE4QLBW7qi-4" value="Record Mapping" style="edgeStyle=orthogonalEdgeStyle;rounded=0;orthogonalLoop=1;jettySize=auto;html=1;entryX=0;entryY=0.5;entryDx=0;entryDy=0;strokeWidth=2;strokeColor=#2F5B7C;verticalAlign=bottom;fontStyle=1;fontSize=15;" parent="1" source="azvXLlZP5CpE4QLBW7qi-1" target="azvXLlZP5CpE4QLBW7qi-2" edge="1">
          <mxGeometry relative="1" as="geometry" />
        </mxCell>
        <mxCell id="azvXLlZP5CpE4QLBW7qi-1" value="Teacher&lt;div&gt;Execution&lt;/div&gt;" style="rounded=1;whiteSpace=wrap;html=1;shadow=0;labelBackgroundColor=none;strokeColor=#2f5b7c;strokeWidth=3;fillColor=#f5f5f5;fontFamily=Helvetica;fontSize=16;fontColor=#333333;align=center;fontStyle=1;spacing=5;arcSize=7;perimeterSpacing=2;" parent="1" vertex="1">
          <mxGeometry x="40" y="450" width="150" height="70" as="geometry" />
        </mxCell>
        <mxCell id="azvXLlZP5CpE4QLBW7qi-5" value="Embodiment Mapping" style="edgeStyle=orthogonalEdgeStyle;rounded=0;orthogonalLoop=1;jettySize=auto;html=1;strokeWidth=2;strokeColor=#2F5B7C;fontStyle=1;verticalAlign=bottom;fontSize=15;" parent="1" source="azvXLlZP5CpE4QLBW7qi-2" target="azvXLlZP5CpE4QLBW7qi-3" edge="1">
          <mxGeometry relative="1" as="geometry" />
        </mxCell>
        <mxCell id="azvXLlZP5CpE4QLBW7qi-2" value="Recorded&lt;div&gt;Execution&lt;/div&gt;" style="rounded=1;whiteSpace=wrap;html=1;shadow=0;labelBackgroundColor=none;strokeColor=#2f5b7c;strokeWidth=3;fillColor=#f5f5f5;fontFamily=Helvetica;fontSize=16;fontColor=#333333;align=center;fontStyle=1;spacing=5;arcSize=7;perimeterSpacing=2;" parent="1" vertex="1">
          <mxGeometry x="410" y="450" width="150" height="70" as="geometry" />
        </mxCell>
        <mxCell id="azvXLlZP5CpE4QLBW7qi-3" value="Learner" style="rounded=1;whiteSpace=wrap;html=1;shadow=0;labelBackgroundColor=none;strokeColor=#2f5b7c;strokeWidth=3;fillColor=#f5f5f5;fontFamily=Helvetica;fontSize=16;fontColor=#333333;align=center;fontStyle=1;spacing=5;arcSize=7;perimeterSpacing=2;" parent="1" vertex="1">
          <mxGeometry x="780" y="450" width="150" height="70" as="geometry" />
        </mxCell>
        <mxCell id="azvXLlZP5CpE4QLBW7qi-9" value="&lt;font style=&quot;font-size: 15px;&quot;&gt;&lt;font style=&quot;font-size: 15px;&quot;&gt;g&lt;sub&gt;R&lt;/sub&gt;&lt;/font&gt;&lt;font style=&quot;font-size: 15px;&quot;&gt;(z,a)&lt;/font&gt;&lt;/font&gt;" style="text;html=1;align=center;verticalAlign=middle;resizable=0;points=[];autosize=1;strokeColor=none;fillColor=none;fontSize=12;fontStyle=1" parent="1" vertex="1">
          <mxGeometry x="270" y="480" width="70" height="40" as="geometry" />
        </mxCell>
        <mxCell id="azvXLlZP5CpE4QLBW7qi-11" value="&lt;font style=&quot;&quot;&gt;&lt;font style=&quot;font-size: 15px;&quot;&gt;g&lt;/font&gt;&lt;font style=&quot;font-size: 12.5px;&quot;&gt;&lt;sub&gt;E&lt;/sub&gt;&lt;/font&gt;&lt;font style=&quot;font-size: 15px;&quot;&gt;(z,a)&lt;/font&gt;&lt;/font&gt;" style="text;html=1;align=center;verticalAlign=middle;resizable=0;points=[];autosize=1;strokeColor=none;fillColor=none;fontSize=12;fontStyle=1" parent="1" vertex="1">
          <mxGeometry x="630" y="485" width="70" height="30" as="geometry" />
        </mxCell>
      </root>
    </mxGraphModel>
  </diagram>
</mxfile>
